<?xml version="1.0" encoding="UTF-8" standalone="no"?><svg width="801" height="718" viewBox="0 0 801 718" fill="none" version="1.1" id="svg4" xmlns="http://www.w3.org/2000/svg" xmlns:svg="http://www.w3.org/2000/svg"><g filter="url(#filter0_di_626_877)" id="g1"><path d="M 292.575,89.2902 103.722,416.41 H 237.031 L 364.803,195.124 c 1.688,-2.924 4.116,-5.352 7.04,-7.041 2.925,-1.688 6.242,-2.576 9.618,-2.576 H 437.01 L 503.664,70.0465 H 325.905 c -6.756,0 -13.392,1.7784 -19.243,5.1564 -5.851,3.3779 -10.709,8.2365 -14.087,14.0873 z m 244.416,38.4948 -66.654,115.443 127.756,221.286 c 1.688,2.924 2.577,6.241 2.577,9.618 0,3.376 -0.889,6.693 -2.577,9.617 l -22.222,38.487 c -1.688,2.924 -4.116,5.352 -7.04,7.04 -2.925,1.689 -6.242,2.577 -9.618,2.577 h -55.549 l 66.654,115.46 h 44.434 c 6.756,0 13.393,-1.778 19.244,-5.156 5.85,-3.378 10.709,-8.237 14.086,-14.087 l 77.762,-134.695 c 3.378,-5.851 5.156,-12.487 5.156,-19.243 0,-6.756 -1.778,-13.393 -5.156,-19.244 z M 70.395,474.132 164.821,637.691 c 1.689,2.925 4.118,5.355 7.044,7.044 2.926,1.689 6.244,2.578 9.623,2.578 H 303.685 L 203.704,474.132 Z m 199.963,0 99.998,173.181 H 503.664 L 437.01,531.853 409.235,483.748 c -1.688,-2.923 -4.116,-5.351 -7.04,-7.039 -2.924,-1.689 -6.241,-2.577 -9.617,-2.577 z" fill="#000000" fill-opacity="0.1" shape-rendering="crispEdges" id="path1" /></g><defs id="defs4"><filter id="filter0_di_626_877" x="0.39502001" y="0.0465088" width="800.60498" height="717.26703" filterUnits="userSpaceOnUse" color-interpolation-filters="sRGB"><feFlood flood-opacity="0" result="BackgroundImageFix" id="feFlood1" /><feColorMatrix in="SourceAlpha" type="matrix" values="0 0 0 0 0 0 0 0 0 0 0 0 0 0 0 0 0 0 127 0" result="hardAlpha" id="feColorMatrix1" /><feOffset id="feOffset1" /><feGaussianBlur stdDeviation="35" id="feGaussianBlur1" /><feComposite in2="hardAlpha" operator="out" id="feComposite1" /><feColorMatrix type="matrix" values="0 0 0 0 0.894118 0 0 0 0 0.945098 0 0 0 0 0.968627 0 0 0 0.1 0" id="feColorMatrix2" /><feBlend mode="normal" in2="BackgroundImageFix" result="effect1_dropShadow_626_877" id="feBlend2" /><feBlend mode="normal" in="SourceGraphic" in2="effect1_dropShadow_626_877" result="shape" id="feBlend3" /><feColorMatrix in="SourceAlpha" type="matrix" values="0 0 0 0 0 0 0 0 0 0 0 0 0 0 0 0 0 0 127 0" result="hardAlpha" id="feColorMatrix3" /><feOffset id="feOffset3" /><feGaussianBlur stdDeviation="50" id="feGaussianBlur3" /><feComposite in2="hardAlpha" operator="arithmetic" k2="-1" k3="1" id="feComposite3" k1="0" k4="0" /><feColorMatrix type="matrix" values="0 0 0 0 0 0 0 0 0 0 0 0 0 0 0 0 0 0 0.5 0" id="feColorMatrix4" /><feBlend mode="normal" in2="shape" result="effect2_innerShadow_626_877" id="feBlend4" /></filter></defs></svg>